<svg class="svg-icon" style="width: 1em; height: 1em;vertical-align: middle;fill: currentColor;overflow: hidden;" viewBox="0 0 1024 1024" version="1.1" xmlns="http://www.w3.org/2000/svg"><path d="M409.6 273.066667v68.266666h-68.1984C322.7648 341.333333 307.2 356.6592 307.2 375.534933v341.1968C307.2 735.368533 322.525867 750.933333 341.4016 750.933333h341.1968c18.6368 0 34.2016-15.325867 34.2016-34.2016v-341.1968c0-18.6368-15.325867-34.2016-34.2016-34.2016H614.4V273.066667h102.6048C754.5856 273.066667 785.066667 303.616 785.066667 341.128533v410.0096A68.096 68.096 0 0 1 717.0048 819.2H306.9952A68.096 68.096 0 0 1 238.933333 751.138133V341.128533C238.933333 303.547733 269.482667 273.066667 306.9952 273.066667H409.6z" fill="white" /><path d="M477.422933 603.477333l-46.1824-46.421333a32.4608 32.4608 0 0 0-46.1824 0 32.802133 32.802133 0 0 0 0 46.421333l69.290667 69.563734a32.426667 32.426667 0 0 0 46.08 0.068266l138.6496-139.264a32.9728 32.9728 0 0 0-0.068267-46.318933 32.426667 32.426667 0 0 0-46.08-0.068267l-115.5072 116.0192zM341.333333 307.2c0-56.558933 46.045867-102.4 102.4-102.4h136.533334c56.558933 0 102.4 45.9776 102.4 102.4 0 56.558933-46.045867 102.4-102.4 102.4h-136.533334c-56.558933 0-102.4-45.9776-102.4-102.4z m68.266667 0c0 18.978133 15.1552 34.133333 33.792 34.133333h137.216A34.133333 34.133333 0 0 0 614.4 307.2c0-18.978133-15.1552-34.133333-33.792-34.133333h-137.216A34.133333 34.133333 0 0 0 409.6 307.2z" fill="white" /></svg>