<svg xmlns:dc="http://purl.org/dc/elements/1.1/" xmlns:cc="http://creativecommons.org/ns#" xmlns:rdf="http://www.w3.org/1999/02/22-rdf-syntax-ns#" xmlns:svg="http://www.w3.org/2000/svg" xmlns="http://www.w3.org/2000/svg" xmlns:sodipodi="http://sodipodi.sourceforge.net/DTD/sodipodi-0.dtd" xmlns:inkscape="http://www.inkscape.org/namespaces/inkscape" version="1.1" x="0px" y="0px" viewBox="0 0 100 125">
  <g transform="translate(0,-952.36218)">
    <path style="font-size:medium;fill:#FFFFFF;stroke:#FFFFFF;stroke-width:6;overflow:visible;" d="M 50 4 C 40.671317 4 33 11.20134 33 20.21875 L 33 24 L 23 24 A 2.0001996 2.0001996 0 0 0 22.8125 24 A 2.0001996 2.0001996 0 0 0 21 25.78125 L 14 89.78125 A 2.0001996 2.0001996 0 0 0 14 90 C 14 93.29 16.709957 96 20 96 L 80 96 C 83.290043 96 86 93.29 86 90 A 2.0001996 2.0001996 0 0 0 86 89.78125 L 79 25.78125 A 2.0001996 2.0001996 0 0 0 77 24 L 67 24 L 67 20.21875 C 67 11.20134 59.328683 4 50 4 z M 50 8 C 57.291317 8 63 13.46348 63 20.21875 L 63 24 L 37 24 L 37 20.21875 C 37 13.46348 42.708681 8 50 8 z M 24.8125 28 L 33 28 L 33 31 A 2.0001996 2.0001996 0 1 0 37 31 L 37 28 L 63 28 L 63 32 A 2.0001996 2.0001996 0 1 0 67 32 L 67 28 L 75.1875 28 L 81.96875 90.0625 C 81.93064 91.1536 81.102805 92 80 92 L 20 92 C 18.897195 92 18.069359 91.1536 18.03125 90.0625 L 24.8125 28 z M 59.90625 52.96875 A 2.0002002 2.0002002 0 0 0 58.53125 53.625 L 44.71875 68.34375 L 39.15625 64.375 A 2.0002002 2.0002002 0 1 0 36.84375 67.625 L 43.84375 72.625 A 2.0002002 2.0002002 0 0 0 46.46875 72.34375 L 61.46875 56.34375 A 2.0002002 2.0002002 0 0 0 59.90625 52.96875 z " transform="translate(0,952.36218)"/>
  </g>
</svg>
