<svg class="svg-icon" style="width: 1em; height: 1em; vertical-align: middle; fill: #ffffff; overflow: hidden;" viewBox="0 0 1024 1024" version="1.1" xmlns="http://www.w3.org/2000/svg">
  <path d="M816.5 176H206.8C145.1 176 95 226.2 95 287.8V735c0 61.6 50.1 111.8 111.8 111.8h609.7c61.6 0 111.8-50.2 111.8-111.8V287.8c0-61.6-50.2-111.8-111.8-111.8z m50.8 406.6H643.7c-39.2 0-71.1-31.9-71.1-71.1 0-39.2 31.9-71.1 71.1-71.1h223.6v142.2z m0-203.3H643.7c-72.8 0-132.1 59.3-132.1 132.1 0 72.9 59.3 132.1 132.1 132.1h223.6V735c0 28-22.8 50.8-50.8 50.8H206.8c-28 0-50.8-22.8-50.8-50.8V287.8c0-28 22.8-50.8 50.8-50.8h609.7c28 0 50.8 22.8 50.8 50.8v91.5z m-254 132.1c0 22.5 18.2 40.7 40.6 40.7 22.4 0 40.6-18.2 40.6-40.7 0-22.5-18.2-40.7-40.6-40.7-22.4 0.1-40.6 18.3-40.6 40.7z m0 0"/>
</svg>
